<svg width="23" height="22" viewBox="0 0 23 22" fill="none" xmlns="http://www.w3.org/2000/svg">
<path d="M10 14H12C12.5304 14 13.0391 13.7893 13.4142 13.4142C13.7893 13.0391 14 12.5304 14 12C14 11.4696 13.7893 10.9609 13.4142 10.5858C13.0391 10.2107 12.5304 10 12 10H9C8.4 10 7.9 10.2 7.6 10.6L2 16" stroke="white" stroke-width="2" stroke-linecap="round" stroke-linejoin="round"/>
<path d="M6 20L7.6 18.6C7.9 18.2 8.4 18 9 18H13C14.1 18 15.1 17.6 15.8 16.8L20.4 12.4C20.7859 12.0354 21.0111 11.5323 21.0261 11.0016C21.0411 10.4709 20.8447 9.95592 20.48 9.57003C20.1153 9.18414 19.6123 8.95892 19.0816 8.94392C18.5508 8.92891 18.0359 9.12535 17.65 9.49003L13.45 13.39" stroke="white" stroke-width="2" stroke-linecap="round" stroke-linejoin="round"/>
<path d="M1 15L7 21" stroke="white" stroke-width="2" stroke-linecap="round" stroke-linejoin="round"/>
<path d="M15 10.9C16.6016 10.9 17.9 9.6016 17.9 7.99998C17.9 6.39835 16.6016 5.09998 15 5.09998C13.3983 5.09998 12.1 6.39835 12.1 7.99998C12.1 9.6016 13.3983 10.9 15 10.9Z" stroke="white" stroke-width="2" stroke-linecap="round" stroke-linejoin="round"/>
<path d="M5 7C6.65685 7 8 5.65685 8 4C8 2.34315 6.65685 1 5 1C3.34315 1 2 2.34315 2 4C2 5.65685 3.34315 7 5 7Z" stroke="white" stroke-width="2" stroke-linecap="round" stroke-linejoin="round"/>
</svg>
